<?xml version="1.0" encoding="iso-8859-1"?>
<!-- Uploaded to: SVG Repo, www.svgrepo.com, Generator: SVG Repo Mixer Tools -->
<svg version="1.1" id="Layer_1" xmlns="http://www.w3.org/2000/svg" xmlns:xlink="http://www.w3.org/1999/xlink" 
	 viewBox="0 0 511.883 511.883" xml:space="preserve">
<path style="fill:#CCD1D9;" d="M400.158,492.152v-0.016l-138.624-85.309l-5.593,9.077l-5.593-9.076l-138.64,85.309l0.016,0.016
	c-3.046,1.875-5.093,5.233-5.093,9.076c0,5.89,4.78,10.654,10.67,10.654c2.046,0,3.952-0.578,5.576-1.578h0.016l133.048-81.873
	l133.048,81.872l0,0c1.625,1,3.53,1.578,5.577,1.578c5.889,0,10.67-4.765,10.67-10.654
	C405.236,497.385,403.205,494.027,400.158,492.152z"/>
<g>
	<path style="fill:#E6E9ED;" d="M255.941,0c-5.889,0-10.669,4.779-10.669,10.669v490.56c0,5.89,4.78,10.654,10.669,10.654
		c5.89,0,10.654-4.765,10.654-10.654V10.669C266.595,4.779,261.831,0,255.941,0z"/>
	<rect x="21.323" y="64.361" style="fill:#E6E9ED;" width="469.22" height="319.55"/>
</g>
<path style="fill:#434A54;" d="M511.882,74.654c0,5.89-4.779,10.67-10.669,10.67H10.654C4.764,85.324,0,80.544,0,74.654V31.992
	c0-5.874,4.765-10.653,10.654-10.653h490.56c5.89,0,10.669,4.779,10.669,10.653v42.662H511.882z"/>
<path style="fill:#48CFAD;" d="M159.963,330.595c0,5.89-4.78,10.669-10.67,10.669h-42.662c-5.889,0-10.653-4.779-10.653-10.669
	V266.61c0-5.89,4.765-10.669,10.653-10.669h42.662c5.89,0,10.67,4.779,10.67,10.669V330.595z"/>
<path style="fill:#5D9CEC;" d="M245.272,330.595c0,5.89-4.78,10.669-10.67,10.669h-42.646c-5.889,0-10.669-4.779-10.669-10.669
	V181.301c0-5.89,4.78-10.669,10.669-10.669h42.646c5.89,0,10.67,4.779,10.67,10.669V330.595z"/>
<path style="fill:#A0D468;" d="M330.581,330.595c0,5.89-4.765,10.669-10.653,10.669h-42.662c-5.89,0-10.67-4.779-10.67-10.669
	V223.948c0-5.89,4.78-10.653,10.67-10.653h42.662c5.889,0,10.653,4.764,10.653,10.653V330.595z"/>
<path style="fill:#AC92EB;" d="M415.905,330.595c0,5.89-4.78,10.669-10.669,10.669h-42.662c-5.89,0-10.654-4.779-10.654-10.669
	V138.639c0-5.89,4.765-10.669,10.654-10.669h42.662c5.889,0,10.669,4.779,10.669,10.669V330.595z"/>
<path style="fill:#434A54;" d="M437.228,319.926H74.639c-5.89,0-10.654,4.779-10.654,10.669s4.765,10.669,10.654,10.669h362.589
	c5.889,0,10.67-4.779,10.67-10.669S443.117,319.926,437.228,319.926z"/>
</svg>