<?xml version="1.0" encoding="iso-8859-1"?>
<!-- Uploaded to: SVG Repo, www.svgrepo.com, Generator: SVG Repo Mixer Tools -->
<svg height="800px" width="800px" version="1.1" id="Layer_1" xmlns="http://www.w3.org/2000/svg" xmlns:xlink="http://www.w3.org/1999/xlink" 
	 viewBox="0 0 511.882 511.882" xml:space="preserve">
<path style="fill:#434A54;" d="M50.43,202.625c-11.763,0-21.331-9.576-21.331-21.331c0-11.763,9.568-21.331,21.331-21.331
	s21.331,9.568,21.331,21.331C71.761,193.048,62.193,202.625,50.43,202.625z"/>
<path style="fill:#FC6E51;" d="M50.43,191.956c-5.881,0-10.662-4.78-10.662-10.662s4.78-10.669,10.662-10.669v-21.324
	c-17.668,0-31.993,14.316-31.993,31.992v50.652h21.331v-20.494c3.335,1.188,6.92,1.828,10.662,1.828
	c13.927,0,25.768-8.904,30.165-21.323H50.43z"/>
<polygon style="fill:#8CC153;" points="302.38,30.468 244.213,474.578 36.941,447.428 26.295,331.798 69.753,0 "/>
<path style="fill:#A0D468;" d="M234.778,53.878L129.045,40.029c-2.296,17.52-18.363,29.86-35.882,27.572L51.617,384.817
	c17.519,2.297,29.868,18.355,27.572,35.867l105.733,13.857c2.296-17.527,18.363-29.868,35.882-27.572l41.545-317.216
	C244.831,87.463,232.482,71.397,234.778,53.878z"/>
<polygon style="fill:#8CC153;" points="407.434,90.236 236.309,504.149 27.67,417.904 26.232,398.22 190.616,0.6 "/>
<path style="fill:#A0D468;" d="M336.076,95.36l-98.548-40.748c-6.748,16.332-25.463,24.096-41.787,17.348L73.503,367.618
	c16.333,6.749,24.096,25.447,17.348,41.788l98.548,40.74c6.756-16.324,25.463-24.088,41.795-17.34l122.223-295.659
	C337.091,130.391,329.327,111.684,336.076,95.36z"/>
<polygon style="fill:#8CC153;" points="493.445,175.163 256.14,484.857 181.642,500.509 34.785,387.989 307.207,32.461 "/>
<path style="fill:#A0D468;" d="M423.18,161.642l-84.637-64.868c-10.747,14.028-30.837,16.684-44.864,5.937L99.098,356.652
	c14.028,10.747,16.684,30.837,5.937,44.864l84.652,64.86c10.748-14.028,30.829-16.684,44.849-5.936l194.581-253.942
	C415.104,195.752,412.433,175.662,423.18,161.642z"/>
<path style="fill:#FC6E51;" d="M445.003,490.559c0,11.778-9.545,21.323-21.323,21.323H39.768c-11.786,0-21.331-9.545-21.331-21.323
	v-277.28c0-11.779,9.545-21.323,21.331-21.323H423.68c11.778,0,21.323,9.544,21.323,21.323L445.003,490.559L445.003,490.559z"/>
<path style="fill:#E9573F;" d="M317.033,426.574h138.641c5.889,0,10.653-4.78,10.653-10.67V287.933
	c0-5.89-4.765-10.669-10.653-10.669H317.033c0,0-42.662,51.098-42.662,74.654S317.033,426.574,317.033,426.574z"/>
<path style="fill:#FFCE54;" d="M381.018,351.919c0,11.778-9.544,21.323-21.323,21.323c-11.778,0-21.339-9.545-21.339-21.323
	s9.561-21.323,21.339-21.323C371.474,330.595,381.018,340.14,381.018,351.919z"/>
</svg>